<svg class="horizontal-logo-tagline" xmlns="http://www.w3.org/2000/svg" viewBox="0 0 1726 299.9">
		<style type="text/css">.st0{fill:#D8D8D8;}.st1{fill:#FFFFFF;}.st2{fill:#F15A22;}</style><path class="st0" d="M1251.3 144.1c0 16.8-12.2 29.1-29.4 29.1 -17.3 0-29.4-12.3-29.4-29.1s12.2-29.1 29.4-29.1C1239.1 114.9 1251.3 127.3 1251.3 144.1zM1202 144.1c0 12.1 8.5 20.4 19.9 20.4 11.4 0 19.9-8.3 19.9-20.4 0-12.1-8.5-20.4-19.9-20.4C1210.4 123.7 1202 132 1202 144.1z"></path><path class="st0" d="M1301.9 153c0 11.8-8.5 20.2-19.2 20.2 -5.5 0-9.3-2.2-12-5.6v20.6h-8.4v-54.5h8.4v4.6c2.7-3.4 6.5-5.6 12-5.6C1293.4 132.7 1301.9 141.2 1301.9 153zM1270.1 153c0 7 4.7 12.3 11.6 12.3 7.2 0 11.6-5.6 11.6-12.3 0-6.7-4.4-12.3-11.6-12.3C1274.8 140.6 1270.1 145.9 1270.1 153z"></path><path class="st0" d="M1346.7 152.9c0 1.1 0 2.2-0.2 3.1h-28.4c1.1 6.9 6 9.8 11.4 9.8 3.9 0 7.9-1.5 11.1-4.1l4.2 6c-4.7 4-10 5.4-15.8 5.4 -11.6 0-19.7-8-19.7-20.2 0-12 7.8-20.2 19.1-20.2C1339.3 132.7 1346.7 140.9 1346.7 152.9zM1318.2 149.7h19.9c-0.9-6-4.4-9.5-9.8-9.5C1322.4 140.2 1319 144 1318.2 149.7z"></path><path class="st0" d="M1392.4 148v24.2h-8.4v-21.4c0-6.5-3.3-10.1-9-10.1 -5.4 0-10 3.6-10 10.2v21.3h-8.4v-38.4h8.3v4.7c3.1-4.5 7.9-5.7 11.8-5.7C1385.9 132.7 1392.4 139 1392.4 148z"></path><path class="st0" d="M1245.1 45l-7.6 5.1c-3.4-5-8.9-8.1-15.7-8.1 -11.4 0-19.9 8.3-19.9 20.4 0 12.1 8.5 20.4 19.9 20.4 6.7 0 12.1-3 15.7-8.1l7.4 5.4c-4.8 7-13.2 11.4-23 11.4 -17.3 0-29.4-12.3-29.4-29.1s12.2-29.1 29.4-29.1C1231.9 33.3 1240.7 37.7 1245.1 45z"></path><path class="st0" d="M1283.5 90.5v-4.6c-2.7 3.4-6.6 5.6-12.1 5.6 -10.8 0-19.2-8.5-19.2-20.2 0-11.8 8.5-20.2 19.2-20.2 5.5 0 9.4 2.2 12.1 5.7v-4.7h8.4v38.4H1283.5zM1260.8 71.3c0 6.7 4.4 12.3 11.6 12.3 6.9 0 11.6-5.3 11.6-12.3 0-7-4.7-12.3-11.6-12.3C1265.2 59 1260.8 64.5 1260.8 71.3z"></path><path class="st0" d="M1339.9 66.3v24.2h-8.4V69.1c0-6.5-3.3-10.1-8.9-10.1 -5.4 0-10 3.6-10 10.2v21.3h-8.4V52.1h8.3v4.7c3.1-4.5 7.9-5.7 11.8-5.7C1333.5 51.1 1339.9 57.4 1339.9 66.3z"></path><path class="st0" d="M1380.7 90.5v-4.6c-2.7 3.4-6.6 5.6-12.1 5.6 -10.8 0-19.2-8.5-19.2-20.2 0-11.8 8.5-20.2 19.2-20.2 5.5 0 9.4 2.2 12.1 5.7v-4.7h8.4v38.4H1380.7zM1358 71.3c0 6.7 4.4 12.3 11.6 12.3 6.9 0 11.6-5.3 11.6-12.3 0-7-4.7-12.3-11.6-12.3C1362.4 59 1358 64.5 1358 71.3z"></path><path class="st0" d="M1430.3 56.7v-24h8.4v57.8h-8.4v-4.6c-2.7 3.4-6.6 5.6-12.1 5.6 -10.8 0-19.2-8.5-19.2-20.2 0-11.8 8.5-20.2 19.2-20.2C1423.7 51.1 1427.6 53.3 1430.3 56.7zM1407.6 71.3c0 6.7 4.4 12.3 11.6 12.3 6.9 0 11.6-5.3 11.6-12.3 0-7-4.7-12.3-11.6-12.3C1412 59 1407.6 64.5 1407.6 71.3z"></path><path class="st0" d="M1479.9 90.5v-4.6c-2.7 3.4-6.6 5.6-12.1 5.6 -10.8 0-19.2-8.5-19.2-20.2 0-11.8 8.5-20.2 19.2-20.2 5.5 0 9.4 2.2 12.1 5.7v-4.7h8.4v38.4H1479.9zM1457.2 71.3c0 6.7 4.4 12.3 11.6 12.3 6.9 0 11.6-5.3 11.6-12.3 0-7-4.7-12.3-11.6-12.3C1461.6 59 1457.2 64.5 1457.2 71.3z"></path><path class="st0" d="M1505.8 54.6h-7.2l2.2-21.9h9.8L1505.8 54.6z"></path><path class="st0" d="M1533 58.4c-4.6 0-7.3 1.8-7.3 4.6 0 2.7 2.8 3.5 6.3 4l4 0.6c8.4 1.2 13.4 4.8 13.4 11.4 0 7.4-6.4 12.6-17.5 12.6 -3.9 0-10.9-0.8-16.5-4.9l3.9-6.3c2.7 2.1 6.5 3.9 12.7 3.9 5.8 0 8.7-1.8 8.7-4.7 0-2.2-2-3.6-6.7-4.3l-4-0.5c-8.5-1.2-13-5.1-13-11.3 0-7.6 6.1-12.3 15.9-12.3 6.1 0 11.6 1.5 15.6 4.1l-3.6 6.5C1542.5 60.3 1537.8 58.4 1533 58.4z"></path><path class="st0" d="M1219.8 254.9c-13.3 0-23.8-7.5-23.8-23.2v-34h9.1V231c0 10.7 6.1 15.1 14.8 15.1s14.8-4.4 14.8-15.1v-33.3h9.1v34C1243.6 247.3 1233.1 254.9 1219.8 254.9z"></path><path class="st0" d="M1292.2 229.7v24.2h-8.4v-21.4c0-6.5-3.3-10.1-8.9-10.1 -5.4 0-10 3.6-10 10.2v21.3h-8.4v-38.4h8.3v4.7c3.1-4.5 7.9-5.7 11.8-5.7C1285.8 214.4 1292.2 220.7 1292.2 229.7z"></path><path class="st0" d="M1314.3 202.1c0 3.4-2.6 5.9-5.9 5.9 -3.4 0-5.9-2.5-5.9-5.9 0-3.3 2.5-5.9 5.9-5.9C1311.7 196.2 1314.3 198.8 1314.3 202.1zM1304.2 253.9v-38.4h8.4v38.4H1304.2z"></path><path class="st0" d="M1335.1 253.9l-15.4-38.4h9.1l11.4 29.7 11.4-29.7h8.9l-15.4 38.4H1335.1z"></path><path class="st0" d="M1401 234.6c0 1.1 0 2.2-0.2 3.1h-28.4c1.1 6.9 6 9.8 11.4 9.8 3.9 0 7.9-1.5 11.1-4.1l4.2 6c-4.7 4-10 5.4-15.8 5.4 -11.6 0-19.7-8-19.7-20.2 0-12 7.8-20.2 19.1-20.2C1393.5 214.4 1401 222.6 1401 234.6zM1372.4 231.3h19.9c-0.9-6-4.4-9.5-9.7-9.5C1376.6 221.9 1373.3 225.7 1372.4 231.3z"></path><path class="st0" d="M1436.8 215.5l-2 8.3c-1.8-0.9-4.3-1.4-6.4-1.4 -5.3 0-9.1 3.7-9.1 10.3v21.1h-8.4v-38.4h8.3v4.3c2.6-3.7 6.5-5.3 11.2-5.3C1432.9 214.4 1434.9 214.7 1436.8 215.5z"></path><path class="st0" d="M1458.6 221.8c-4.6 0-7.3 1.8-7.3 4.6 0 2.7 2.8 3.4 6.3 4l4 0.6c8.4 1.2 13.4 4.8 13.4 11.4 0 7.4-6.4 12.6-17.5 12.6 -3.9 0-10.9-0.8-16.5-4.9l3.9-6.3c2.7 2.1 6.5 3.9 12.7 3.9 5.8 0 8.7-1.8 8.7-4.7 0-2.2-2-3.6-6.7-4.3l-4-0.5c-8.5-1.2-13-5.1-13-11.3 0-7.6 6.1-12.3 15.9-12.3 6.1 0 11.6 1.5 15.6 4.1l-3.6 6.5C1468.1 223.6 1463.4 221.8 1458.6 221.8z"></path><path class="st0" d="M1494.5 202.1c0 3.4-2.6 5.9-5.9 5.9 -3.4 0-5.9-2.5-5.9-5.9 0-3.3 2.5-5.9 5.9-5.9C1491.9 196.2 1494.5 198.8 1494.5 202.1zM1484.4 253.9v-38.4h8.4v38.4H1484.4z"></path><path class="st0" d="M1516.5 223v16.7c0 5.1 2.7 7.2 6.1 7.2 2.6 0 5.5-1.2 7.7-2.6l3.3 6.7c-3.1 2.1-6.9 3.8-11.8 3.8 -8.7 0-13.8-4.7-13.8-14.9V223h-7.7v-7.6h7.7v-11.6h8.4v11.6h14.7v7.6H1516.5z"></path><path class="st0" d="M1540.1 270.1l13.8-24.2 -17.1-30.5h9.4l12.4 22.1 11.9-22.1h9.2l-30.3 54.7H1540.1z"></path><path class="st1" d="M370.7 113l-9.2-23.9h-42.4l-9.2 23.9h-15.7l37-93.6H350l37 93.6H370.7zM356 74.8l-15.6-40.4 -15.6 40.4H356z"></path><path class="st1" d="M415.6 61.7v27.9c0 8.6 4.5 12 10.2 12 4.3 0 9.1-1.9 12.9-4.3l5.5 11.2c-5.2 3.5-11.6 6.4-19.7 6.4 -14.5 0-23-7.8-23-24.9V61.7h-12.8V48.9h12.8V29.6h14v19.4h24.5v12.7H415.6z"></path><path class="st1" d="M489.5 47.3c15.2 0 26 10.5 26 25.5V113h-14V77.4c0-10.8-5.5-16.8-14.9-16.8 -9 0-16.6 6-16.6 16.9V113h-14V16.7h14v39.9C475.1 49.3 483 47.3 489.5 47.3z"></path><path class="st1" d="M583 113v-7.7c-4.5 5.7-11 9.4-20.1 9.4 -17.9 0-32-14.1-32-33.7 0-19.6 14.1-33.7 32-33.7 9.2 0 15.6 3.7 20.1 9.4v-7.8h14V113H583zM545.2 81c0 11.2 7.3 20.5 19.3 20.5 11.5 0 19.3-8.8 19.3-20.5 0-11.7-7.8-20.5-19.3-20.5C552.5 60.5 545.2 69.7 545.2 81z"></path><path class="st1" d="M683.1 81c0 19.6-14.1 33.7-32 33.7 -9.2 0-15.6-3.7-20.1-9.3v7.6h-14V16.7h14v39.9c4.5-5.6 10.9-9.3 20.1-9.3C669 47.3 683.1 61.4 683.1 81zM630.1 81c0 11.7 7.8 20.5 19.3 20.5 12 0 19.3-9.3 19.3-20.5 0-11.2-7.3-20.5-19.3-20.5C637.9 60.5 630.1 69.3 630.1 81z"></path><path class="st1" d="M747.3 113v-7.7c-4.5 5.7-11 9.4-20.1 9.4 -17.9 0-32-14.1-32-33.7 0-19.6 14.1-33.7 32-33.7 9.2 0 15.7 3.7 20.1 9.4v-7.8h14V113H747.3zM709.5 81c0 11.2 7.3 20.5 19.3 20.5 11.5 0 19.3-8.8 19.3-20.5 0-11.7-7.8-20.5-19.3-20.5C716.8 60.5 709.5 69.7 709.5 81z"></path><path class="st1" d="M805.4 59.5c-7.7 0-12.1 3.1-12.1 7.6s4.7 5.7 10.6 6.6l6.6 1c14 2.1 22.3 8 22.3 18.9 0 12.3-10.7 20.9-29.2 20.9 -6.6 0-18.2-1.3-27.5-8.2l6.5-10.5c4.5 3.5 10.8 6.6 21.1 6.6 9.6 0 14.6-3 14.6-7.8 0-3.7-3.4-6-11.1-7.1l-6.7-0.9c-14.2-1.9-21.7-8.4-21.7-18.8 0-12.6 10.2-20.5 26.5-20.5 10.1 0 19.3 2.5 25.9 6.8l-6 10.9C821.3 62.7 813.4 59.5 805.4 59.5z"></path><path class="st1" d="M901.1 57.5l-9 9.6c-4.5-4.3-9.2-6.6-15.4-6.6 -10.8 0-18.9 8.4-18.9 20.5 0 12.1 8.2 20.5 18.9 20.5 6.2 0 11.6-2.9 15.7-6.7l8.6 9.6c-5.9 6.8-14.3 10.2-23.9 10.2 -20.3 0-33.7-14.5-33.7-33.7 0-19.2 13.4-33.7 33.7-33.7C886.8 47.3 895.4 50.8 901.1 57.5z"></path><path class="st1" d="M961.4 113v-7.7c-4.5 5.7-11 9.4-20.1 9.4 -17.9 0-32-14.1-32-33.7 0-19.6 14.1-33.7 32-33.7 9.2 0 15.7 3.7 20.1 9.4v-7.8h14V113H961.4zM923.6 81c0 11.2 7.3 20.5 19.3 20.5 11.5 0 19.3-8.8 19.3-20.5 0-11.7-7.8-20.5-19.3-20.5C930.9 60.5 923.6 69.7 923.6 81z"></path><path class="st1" d="M340.6 233.5c-22.1 0-39.7-12.6-39.7-38.6v-56.7H316v55.6c0 17.9 10.1 25.2 24.6 25.2s24.6-7.4 24.6-25.2v-55.6h15.1V195C380.3 221 362.7 233.5 340.6 233.5z"></path><path class="st1" d="M460.8 191.6v40.3h-14v-35.6c0-10.8-5.5-16.8-14.9-16.8 -9 0-16.6 6-16.6 16.9v35.5h-14v-64.1h13.9v7.8c5.1-7.5 13.1-9.5 19.7-9.5C450.1 166.1 460.8 176.6 460.8 191.6z"></path><path class="st1" d="M497.1 145.7c0 5.6-4.3 9.8-9.9 9.8 -5.6 0-9.8-4.1-9.8-9.8 0-5.5 4.1-9.9 9.8-9.9C492.8 135.8 497.1 140.1 497.1 145.7zM480.2 231.9v-64.1h14v64.1H480.2z"></path><path class="st1" d="M531.5 231.9l-25.7-64.1H521l18.9 49.6 18.9-49.6h14.8L548 231.9H531.5z"></path><path class="st1" d="M640.7 199.8c0 1.8-0.1 3.6-0.3 5.2h-47.3c1.8 11.5 10 16.3 19.1 16.3 6.4 0 13.2-2.5 18.5-6.8l7 10c-7.8 6.7-16.7 9-26.3 9 -19.3 0-32.8-13.4-32.8-33.7 0-20.1 13-33.7 31.9-33.7C628.2 166.1 640.7 179.8 640.7 199.8zM593.1 194.4h33.2c-1.5-10-7.4-15.8-16.3-15.8C600.1 178.6 594.5 185 593.1 194.4z"></path><path class="st1" d="M699.9 167.9l-3.3 13.8c-2.9-1.5-7.2-2.3-10.6-2.3 -8.9 0-15.2 6.2-15.2 17.2v35.2h-14v-64.1h13.8v7.2c4.3-6.2 10.8-8.9 18.6-8.9C693.5 166.1 696.7 166.7 699.9 167.9z"></path><path class="st1" d="M735.8 178.4c-7.7 0-12.1 3.1-12.1 7.6s4.7 5.7 10.6 6.6l6.6 1c14 2.1 22.3 8 22.3 18.9 0 12.3-10.7 20.9-29.2 20.9 -6.6 0-18.2-1.3-27.5-8.2l6.5-10.5c4.5 3.5 10.8 6.6 21.1 6.6 9.6 0 14.6-3 14.6-7.8 0-3.7-3.4-6-11.1-7.1l-6.7-0.9c-14.2-1.9-21.7-8.4-21.7-18.8 0-12.6 10.2-20.5 26.5-20.5 10.1 0 19.3 2.5 25.9 6.8l-6 10.9C751.7 181.5 743.8 178.4 735.8 178.4z"></path><path class="st1" d="M795.2 145.7c0 5.6-4.3 9.8-9.9 9.8 -5.6 0-9.8-4.1-9.8-9.8 0-5.5 4.1-9.9 9.8-9.9C790.8 135.8 795.2 140.1 795.2 145.7zM778.3 231.9v-64.1h14v64.1H778.3z"></path><path class="st1" d="M831.4 180.5v27.9c0 8.6 4.5 12 10.2 12 4.3 0 9.1-1.9 12.9-4.3l5.5 11.2c-5.2 3.5-11.6 6.4-19.7 6.4 -14.5 0-23-7.8-23-24.9v-28.2h-12.8v-12.7h12.8v-19.4h14v19.4H856v12.7H831.4z"></path><path class="st1" d="M870.3 259l22.9-40.3 -28.4-50.9h15.7l20.6 36.8 19.9-36.8h15.4L885.9 259H870.3z"></path><path class="st2" d="M191.9 42.1v133.4c0 12.1-2.7 21-8.8 29 -6.5 8.5-17.2 16.4-32.6 24.1L117 245.4l-33.5-16.7c-15.4-7.7-26-15.6-32.6-24.1 -6.1-8-8.8-17-8.8-29V42.1H191.9M234 0H0v175.5c0 44.3 25 71 64.7 90.8l52.3 26.2 52.3-26.2c39.6-19.8 64.7-46.5 64.7-90.8V0L234 0z"></path><rect x="1081.9" y="30.1" class="st0" width="6.8" height="239.7"></rect>
	</svg>