<svg version="1.1" xmlns="http://www.w3.org/2000/svg" width="143" height="32" viewBox="0 0 143 32">
				<title>Athabasca University - Canada's Open University</title>
				<path fill="#fff" d="M100.033 14.49c0 2.187-1.579 3.788-3.831 3.788-2.241 0-3.831-1.601-3.831-3.788s1.579-3.788 3.831-3.788c2.251 0 3.831 1.601 3.831 3.788zM93.621 14.49c0 1.579 1.099 2.657 2.593 2.657 1.483 0 2.593-1.078 2.593-2.657s-1.099-2.657-2.593-2.657c-1.494 0-2.593 1.078-2.593 2.657z">
				</path>
				<path fill="#fff" d="M106.617 15.643c0 1.526-1.099 2.636-2.497 2.636-0.715 0-1.216-0.288-1.569-0.726v2.689h-1.088v-7.096h1.088v0.598c0.352-0.437 0.854-0.726 1.569-0.726 1.398 0 2.497 1.099 2.497 2.625zM102.477 15.643c0 0.918 0.608 1.601 1.504 1.601 0.939 0 1.504-0.726 1.504-1.601s-0.566-1.601-1.504-1.601c-0.886 0-1.504 0.694-1.504 1.601z">
				</path>
				<path fill="#fff" d="M112.454 15.643c0 0.139 0 0.277-0.021 0.405h-3.703c0.139 0.896 0.779 1.27 1.483 1.27 0.501 0 1.024-0.192 1.451-0.523l0.544 0.779c-0.608 0.523-1.302 0.704-2.059 0.704-1.504 0-2.561-1.046-2.561-2.636 0-1.569 1.014-2.636 2.486-2.636 1.408 0.011 2.379 1.078 2.379 2.636zM108.74 15.216h2.593c-0.117-0.779-0.576-1.238-1.27-1.238-0.779 0.011-1.216 0.512-1.323 1.238z">
				</path>
				<path fill="#fff" d="M118.397 15.002v3.148h-1.099v-2.785c0-0.843-0.427-1.312-1.163-1.312-0.704 0-1.291 0.47-1.291 1.323v2.774h-1.099v-5.004h1.088v0.608c0.405-0.587 1.024-0.736 1.537-0.736 1.184 0 2.027 0.822 2.027 1.985z">
				</path>
				<path fill="#fff" d="M99.233 1.601l-0.982 0.662c-0.448-0.651-1.163-1.056-2.038-1.056-1.483 0-2.593 1.078-2.593 2.657s1.099 2.657 2.593 2.657c0.875 0 1.579-0.384 2.038-1.046l0.96 0.704c-0.619 0.918-1.707 1.473-2.998 1.473-2.241 0-3.831-1.601-3.831-3.788s1.579-3.788 3.831-3.788c1.291 0 2.443 0.576 3.020 1.526z">
				</path>
				<path fill="#fff" d="M104.227 7.522v-0.598c-0.352 0.448-0.854 0.736-1.569 0.736-1.398 0-2.497-1.099-2.497-2.636 0-1.526 1.099-2.636 2.497-2.636 0.715 0 1.227 0.288 1.569 0.736v-0.608h1.088v5.004h-1.088zM101.282 5.015c0 0.875 0.566 1.601 1.504 1.601 0.896 0 1.504-0.694 1.504-1.601 0-0.918-0.608-1.601-1.504-1.601-0.939 0-1.504 0.726-1.504 1.601z">
				</path>
				<path fill="#fff" d="M111.568 4.375v3.148h-1.099v-2.785c0-0.843-0.427-1.312-1.163-1.312-0.704 0-1.291 0.47-1.291 1.323v2.774h-1.099v-5.004h1.088v0.608c0.405-0.587 1.024-0.736 1.537-0.736 1.195 0 2.027 0.811 2.027 1.985z">
				</path>
				<path fill="#fff" d="M116.871 7.522v-0.598c-0.352 0.448-0.854 0.736-1.569 0.736-1.398 0-2.497-1.099-2.497-2.636 0-1.526 1.099-2.636 2.497-2.636 0.715 0 1.227 0.288 1.569 0.736v-0.608h1.088v5.004h-1.088zM113.926 5.015c0 0.875 0.566 1.601 1.504 1.601 0.896 0 1.504-0.694 1.504-1.601 0-0.918-0.608-1.601-1.504-1.601-0.939 0-1.504 0.726-1.504 1.601z">
				</path>
				<path fill="#fff" d="M123.326 3.126v-3.126h1.088v7.522h-1.088v-0.598c-0.352 0.448-0.854 0.736-1.569 0.736-1.398 0-2.497-1.099-2.497-2.636 0-1.526 1.099-2.636 2.497-2.636 0.715 0 1.216 0.288 1.569 0.736zM120.381 5.015c0 0.875 0.566 1.601 1.504 1.601 0.896 0 1.504-0.694 1.504-1.601 0-0.918-0.608-1.601-1.504-1.601-0.939 0-1.504 0.726-1.504 1.601z">
				</path>
				<path fill="#fff" d="M129.782 7.522v-0.598c-0.352 0.448-0.854 0.736-1.569 0.736-1.398 0-2.497-1.099-2.497-2.636 0-1.526 1.099-2.636 2.497-2.636 0.715 0 1.227 0.288 1.569 0.736v-0.608h1.088v5.004h-1.088zM126.826 5.015c0 0.875 0.566 1.601 1.505 1.601 0.896 0 1.505-0.694 1.505-1.601 0-0.918-0.608-1.601-1.505-1.601-0.928 0-1.504 0.726-1.504 1.601z">
				</path>
				<path fill="#fff" d="M133.154 2.849h-0.939l0.288-2.849h1.28l-0.63 2.849z"></path>
				<path fill="#fff" d="M136.686 3.34c-0.598 0-0.95 0.235-0.95 0.598 0 0.352 0.363 0.448 0.822 0.512l0.512 0.075c1.088 0.16 1.739 0.619 1.739 1.483 0 0.96-0.832 1.633-2.273 1.633-0.512 0-1.419-0.096-2.145-0.64l0.501-0.822c0.352 0.277 0.843 0.512 1.654 0.512 0.747 0 1.142-0.235 1.142-0.608 0-0.288-0.267-0.47-0.864-0.555l-0.523-0.064c-1.11-0.149-1.697-0.662-1.697-1.473 0-0.982 0.79-1.601 2.070-1.601 0.79 0 1.505 0.192 2.027 0.523l-0.47 0.854c-0.299-0.181-0.918-0.427-1.547-0.427z">
				</path>
				<path fill="#fff" d="M95.936 28.906c-1.729 0-3.105-0.982-3.105-3.009v-4.428h1.184v4.343c0 1.398 0.79 1.974 1.921 1.974s1.921-0.576 1.921-1.974v-4.343h1.184v4.428c0 2.027-1.376 3.009-3.105 3.009z">
				</path>
				<path fill="#fff" d="M105.358 25.63v3.148h-1.099v-2.785c0-0.843-0.427-1.312-1.163-1.312-0.704 0-1.291 0.47-1.291 1.323v2.774h-1.099v-5.004h1.088v0.608c0.405-0.587 1.024-0.736 1.537-0.736 1.195 0 2.027 0.822 2.027 1.985z">
				</path>
				<path fill="#fff" d="M108.228 22.045c0 0.437-0.341 0.758-0.768 0.758-0.437 0-0.758-0.32-0.758-0.758s0.32-0.768 0.758-0.768c0.427 0 0.768 0.341 0.768 0.768zM106.916 28.778v-5.004h1.099v5.004h-1.099z">
				</path>
				<path fill="#fff" d="M110.949 28.778l-2.006-5.004h1.195l1.483 3.873 1.472-3.873h1.163l-1.995 5.004h-1.312z"></path>
				<path fill="#fff" d="M119.507 26.27c0 0.139 0 0.277-0.021 0.405h-3.692c0.139 0.896 0.779 1.27 1.483 1.27 0.501 0 1.024-0.192 1.451-0.523l0.544 0.779c-0.608 0.523-1.302 0.704-2.059 0.704-1.504 0-2.561-1.046-2.561-2.636 0-1.569 1.014-2.636 2.486-2.636 1.398 0.011 2.369 1.078 2.369 2.636zM115.793 25.843h2.593c-0.117-0.779-0.576-1.238-1.27-1.238-0.768 0.011-1.206 0.512-1.323 1.238z">
				</path>
				<path fill="#fff" d="M124.169 23.784l-0.256 1.078c-0.235-0.117-0.566-0.181-0.832-0.181-0.694 0-1.195 0.491-1.195 1.344v2.753h-1.088v-5.004h1.078v0.566c0.331-0.48 0.843-0.694 1.451-0.694 0.341 0 0.598 0.043 0.843 0.139z">
				</path>
				<path fill="#fff" d="M127.008 24.595c-0.598 0-0.95 0.235-0.95 0.598 0 0.352 0.363 0.448 0.822 0.512l0.512 0.075c1.088 0.16 1.739 0.619 1.739 1.483 0 0.96-0.832 1.633-2.273 1.633-0.512 0-1.419-0.096-2.145-0.64l0.501-0.822c0.352 0.277 0.843 0.512 1.654 0.512 0.747 0 1.142-0.235 1.142-0.608 0-0.288-0.267-0.47-0.864-0.555l-0.523-0.064c-1.11-0.149-1.697-0.662-1.697-1.473 0-0.982 0.79-1.601 2.070-1.601 0.79 0 1.504 0.192 2.027 0.523l-0.47 0.854c-0.299-0.181-0.918-0.427-1.547-0.427z">
				</path>
				<path fill="#fff" d="M131.681 22.045c0 0.437-0.341 0.758-0.768 0.758-0.437 0-0.758-0.32-0.758-0.758s0.32-0.768 0.758-0.768c0.427 0 0.768 0.341 0.768 0.768zM130.358 28.778v-5.004h1.099v5.004h-1.099z">
				</path>
				<path fill="#fff" d="M134.541 24.766v2.177c0 0.672 0.352 0.939 0.79 0.939 0.341 0 0.715-0.149 1.003-0.341l0.437 0.875c-0.405 0.267-0.907 0.502-1.536 0.502-1.131 0-1.793-0.608-1.793-1.942v-2.198h-0.992v-0.992h0.992v-1.515h1.099v1.515h1.921v0.992h-1.921z">
				</path>
				<path fill="#fff" d="M137.614 30.901l1.793-3.148-2.219-3.969h1.227l1.611 2.87 1.547-2.87h1.206l-3.948 7.128h-1.216z">
				</path>
				<path fill="#f05a24" d="M20.988 4.61v14.586c0 1.323-0.299 2.305-0.971 3.18-0.715 0.928-1.878 1.793-3.564 2.636l-3.649 1.835-3.66-1.835c-1.686-0.843-2.849-1.707-3.564-2.636-0.672-0.875-0.971-1.857-0.971-3.18v-14.586h16.379zM25.598 0h-25.598v19.196c0 4.844 2.742 7.768 7.074 9.934l5.719 2.86 5.719-2.86c4.332-2.166 7.074-5.090 7.074-9.934v-19.196h0.011z">
				</path>
				<path fill="#fff" d="M40.878 0l-11.577 29.311h5.292l2.849-7.373h12.815l2.849 7.373h5.452l-11.588-29.311h-6.093zM48.379 17.115h-9.070l4.535-11.705 4.535 11.705z">
				</path>
				<path fill="#fff" d="M79.995 0v17.36c0 6.263-4.023 7.576-7.394 7.576s-7.394-1.312-7.394-7.576v-17.36h-5.068v17.713c0 7.469 4.78 12.111 12.463 12.111s12.463-4.642 12.463-12.111v-17.713h-5.068z">
				</path>
			</svg>