<svg xmlns="http://www.w3.org/2000/svg" viewBox="0 0 530.78 280.8">
						<defs>
							<style>
								.cls-1 {
									fill: #fff
								}

								.cls-2 {
									fill: #f15a22
								}
							</style>
						</defs>
						<path d="M412.49 280.8c-69.84 0-118.3-38.65-118.3-114.57V1.25h54.93v162.24c0 44.92 25.7 64.93 63.37 64.93s63.36-20.01 63.36-64.93V1.25h54.93v164.99c0 75.92-48.45 114.57-118.29 114.57Z" class="cls-2"></path>
						<path d="m280.45 275.9-23.94-63.96H139.4l-23.93 63.96H58.38L165.29 1.25h66.69L338.9 275.9h-58.46Zm-42.77-114.37L198.05 55.4l-39.82 106.13h79.45Z" class="cls-1"></path>
						<path d="M0 60.67h78.88v9.03H0z" style="fill:#1b365d"></path>
						<path d="M0 60.67h78.88v9.03H0z" class="cls-2"></path>
						<path d="M78.88 19.12v30.21H68.34V22.58c0-8.08-4.12-12.59-11.19-12.59s-12.44 4.47-12.44 12.7v26.65H34.17V22.59c0-8.08-4.12-12.59-11.19-12.59s-12.44 4.47-12.44 12.7v26.65H0V1.26h10.44v5.87C14.3 1.5 20.28 0 25.19 0c7.38 0 13.25 3.21 16.61 8.58C45.97 1.7 53.34 0 59.37 0c11.44 0 19.52 7.88 19.52 19.12ZM122.65 1.25 109.4 35.16 96.15 1.25H84.61l18.98 48.77-7.69 19.69h11.64l1.86-4.78 5.81-14.91 18.98-48.77h-11.54z" class="cls-1"></path>
					</svg>